<svg width="40" height="40" viewBox="0 0 40 40" fill="none" xmlns="http://www.w3.org/2000/svg">
<path fill-rule="evenodd" clip-rule="evenodd" d="M20 40C31.0457 40 40 31.0457 40 20C40 8.9543 31.0457 0 20 0C8.9543 0 0 8.9543 0 20C0 31.0457 8.9543 40 20 40Z" fill="#4CE5B1"/>
<rect x="6" y="6" width="28" height="28" fill="#FF0000" fill-opacity="0.01"/>
<path d="M17.9213 14.0745C17.6361 10.7936 14.2133 9.18379 14.0685 9.11808C13.9326 9.05387 13.7803 9.03445 13.6339 9.05984C9.68256 9.71541 9.08822 12.0151 9.06432 12.1107C9.03147 12.2451 9.03744 12.384 9.07926 12.5139C13.7922 27.1366 23.587 29.847 26.8066 30.7386C27.0545 30.8072 27.2591 30.8625 27.4144 30.9133C27.4891 30.9387 27.5667 30.9491 27.6444 30.9491C27.7504 30.9491 27.8564 30.9267 27.9535 30.8819C28.0521 30.8371 30.3787 29.741 30.9476 26.166C30.973 26.0107 30.9476 25.8494 30.8759 25.709C30.8252 25.6105 29.6081 23.2943 26.2332 22.4759C25.9972 22.4147 25.7553 22.4774 25.5731 22.6327C24.5084 23.5422 23.0374 24.5114 22.4028 24.6114C18.1483 22.5312 15.7724 18.5395 15.6828 17.7824C15.6305 17.3568 16.6057 15.862 17.7271 14.6464C17.869 14.4926 17.9407 14.2835 17.9213 14.0745Z" fill="black"/>
<mask id="mask0_1_82" style="mask-type:alpha" maskUnits="userSpaceOnUse" x="9" y="9" width="22" height="22">
<path d="M17.9213 14.0745C17.6361 10.7936 14.2133 9.18379 14.0685 9.11808C13.9326 9.05387 13.7803 9.03445 13.6339 9.05984C9.68256 9.71541 9.08822 12.0151 9.06432 12.1107C9.03147 12.2451 9.03744 12.384 9.07926 12.5139C13.7922 27.1366 23.587 29.847 26.8066 30.7386C27.0545 30.8072 27.2591 30.8625 27.4144 30.9133C27.4891 30.9387 27.5667 30.9491 27.6444 30.9491C27.7504 30.9491 27.8564 30.9267 27.9535 30.8819C28.0521 30.8371 30.3787 29.741 30.9476 26.166C30.973 26.0107 30.9476 25.8494 30.8759 25.709C30.8252 25.6105 29.6081 23.2943 26.2332 22.4759C25.9972 22.4147 25.7553 22.4774 25.5731 22.6327C24.5084 23.5422 23.0374 24.5114 22.4028 24.6114C18.1483 22.5312 15.7724 18.5395 15.6828 17.7824C15.6305 17.3568 16.6057 15.862 17.7271 14.6464C17.869 14.4926 17.9407 14.2835 17.9213 14.0745Z" fill="white"/>
</mask>
<g mask="url(#mask0_1_82)">
<rect x="6" y="6" width="28" height="28" fill="white"/>
</g>
</svg>
