<svg width="35" height="39" viewBox="0 0 35 39" fill="none" xmlns="http://www.w3.org/2000/svg">
<g filter="url(#filter0_d_1_126)">
<path fill-rule="evenodd" clip-rule="evenodd" d="M7.47928 30.0966L9.02437 31.178L9.02694 31.1743L9.16164 31.2687C9.96359 31.9101 12.492 32.9491 12.492 32.9491C13.5871 33.2162 14.7482 32.3912 15.5604 31.6096C15.9721 31.5682 16.3942 31.3253 16.6826 30.9158L18.3893 28.4915C18.6185 28.1661 18.7202 27.7947 18.7005 27.4555L18.9501 27.101L19.7089 26.0236L21.0022 26.3241L21.2609 25.9568L20.1502 25.3968L24.6848 18.9571C25.0117 18.86 25.327 18.6399 25.5569 18.3136L29.7279 12.3903C29.9836 12.0272 30.0801 11.6082 30.0283 11.2384C30.4271 10.4469 30.9189 9.15358 30.2408 8.56999L25.8335 5.4855L21.4267 2.40148C20.6457 1.96376 19.5931 2.86482 18.9817 3.50721C18.6148 3.58422 18.2524 3.81679 17.9966 4.18005L13.8257 10.1032C13.5958 10.4297 13.495 10.8001 13.5146 11.1394L8.9502 17.6216L8.11945 16.8412L7.86081 17.2082L8.52432 18.2263L7.78009 19.2834L7.52004 19.6395C7.19577 19.7394 6.8856 19.9576 6.65781 20.2812L4.95107 22.7054C4.71885 23.0354 4.6172 23.4121 4.63994 23.7549C4.14864 24.7955 3.68652 26.2619 4.34481 27.2473C4.34481 27.2473 6.18396 29.2647 7.06141 29.7987L7.48175 30.093L7.47928 30.0966Z" fill="white"/>
</g>
<rect x="27.4905" y="7.50357" width="2" height="5" rx="1" transform="rotate(124 27.4905 7.50357)" fill="#242E42"/>
<rect x="29.9776" y="9.18115" width="2" height="4" rx="1" transform="rotate(124 29.9776 9.18115)" fill="#F52D56"/>
<rect x="10.4448" y="30.9865" width="1" height="5" rx="0.5" transform="rotate(124 10.4448 30.9865)" fill="#242E42"/>
<rect x="24.1743" y="5.26682" width="2" height="4" rx="1" transform="rotate(124 24.1743 5.26682)" fill="#F52D56"/>
<path fill-rule="evenodd" clip-rule="evenodd" d="M12.0653 24.0138L12.0701 24.0073C10.5196 22.7757 9.65192 21.7883 9.19248 21.0114C8.68638 20.1552 8.67517 19.5551 8.79073 19.1695C8.79229 19.1637 8.79481 19.1586 8.79621 19.1534C8.81879 19.0807 8.84532 19.0164 8.87505 18.9588C8.9957 18.7203 9.14918 18.6113 9.14918 18.6113L13.2114 15.9655C13.1905 16.7252 15.3436 18.5898 16.1692 19.2773C17.0584 19.8815 19.4452 21.4354 20.1717 21.2079L18.7295 25.827C18.7295 25.827 18.6665 26.0043 18.469 26.1848C18.4226 26.2282 18.369 26.2699 18.3069 26.3114C18.3016 26.3151 18.2952 26.3197 18.2893 26.3236C17.9482 26.5394 17.366 26.6925 16.401 26.4417C15.526 26.2126 14.3365 25.6506 12.725 24.5004L12.7201 24.507C12.6083 24.4233 12.4998 24.3411 12.3931 24.26C12.2859 24.1799 12.1766 24.0985 12.0653 24.0138Z" fill="#242E42"/>
<path fill-rule="evenodd" clip-rule="evenodd" d="M23.9942 15.6349L19.503 12.2521L16.7877 10.2068L16.6174 10.0788C16.2203 8.69816 17.4351 7.00122 18.3562 5.96276L27.5505 12.8878C26.8002 14.0549 25.4949 15.6839 24.0547 15.6805L23.9942 15.6349Z" fill="#242E42"/>
<path fill-rule="evenodd" clip-rule="evenodd" d="M26.227 16.5299C25.5822 17.4858 20.7411 24.663 20.7411 24.663C20.7411 24.663 21.449 20.0369 22.0908 19.0854C22.7327 18.1339 26.8717 15.5741 26.227 16.5299Z" fill="#242E42"/>
<path fill-rule="evenodd" clip-rule="evenodd" d="M14.6176 8.70545C13.9729 9.66132 9.13178 16.8385 9.13178 16.8385C9.13178 16.8385 13.2364 14.3298 13.8782 13.3783C14.52 12.4267 15.2623 7.74958 14.6176 8.70545Z" fill="#242E42"/>
<defs>
<filter id="filter0_d_1_126" x="0.0185089" y="0.285889" width="34.5587" height="38.7145" filterUnits="userSpaceOnUse" color-interpolation-filters="sRGB">
<feFlood flood-opacity="0" result="BackgroundImageFix"/>
<feColorMatrix in="SourceAlpha" type="matrix" values="0 0 0 0 0 0 0 0 0 0 0 0 0 0 0 0 0 0 127 0" result="hardAlpha"/>
<feOffset dy="2"/>
<feGaussianBlur stdDeviation="2"/>
<feColorMatrix type="matrix" values="0 0 0 0 0 0 0 0 0 0 0 0 0 0 0 0 0 0 0.2 0"/>
<feBlend mode="normal" in2="BackgroundImageFix" result="effect1_dropShadow_1_126"/>
<feBlend mode="normal" in="SourceGraphic" in2="effect1_dropShadow_1_126" result="shape"/>
</filter>
</defs>
</svg>
