<svg width="40" height="40" viewBox="0 0 40 40" fill="none" xmlns="http://www.w3.org/2000/svg">
<path fill-rule="evenodd" clip-rule="evenodd" d="M20 40C31.0457 40 40 31.0457 40 20C40 8.9543 31.0457 0 20 0C8.9543 0 0 8.9543 0 20C0 31.0457 8.9543 40 20 40Z" fill="#4252FF"/>
<rect x="6" y="6" width="28" height="28" fill="#FF0000" fill-opacity="0.01"/>
<path fill-rule="evenodd" clip-rule="evenodd" d="M24.3777 29.5577C23.0369 30.1069 21.5562 30.4138 20 30.4138C13.8131 30.4138 8.8 25.5785 8.8 19.6069C8.8 13.6408 13.8131 8.8 20 8.8C26.1869 8.8 31.2 13.6408 31.1892 19.6177C31.1892 21.7662 30.5377 23.7692 29.4123 25.4546C29.3638 25.5138 29.3208 25.5838 29.2777 25.6538C29.1485 25.8854 29.0677 26.1546 29.0677 26.44L30.2577 31.2L25.7346 29.5362C25.5354 29.45 25.3146 29.4069 25.0831 29.4069C24.8731 29.4069 24.6685 29.4446 24.48 29.5146C24.48 29.52 24.4746 29.52 24.4692 29.52C24.4369 29.5308 24.41 29.5415 24.3777 29.5577ZM26.8923 20C26.8923 19.0469 26.1223 18.2769 25.1692 18.2769C24.2162 18.2769 23.4462 19.0469 23.4462 20C23.4462 20.9531 24.2162 21.7231 25.1692 21.7231C26.1223 21.7231 26.8923 20.9531 26.8923 20ZM20 18.2769C20.9531 18.2769 21.7231 19.0469 21.7231 20C21.7231 20.9531 20.9531 21.7231 20 21.7231C19.0469 21.7231 18.2769 20.9531 18.2769 20C18.2769 19.0469 19.0469 18.2769 20 18.2769ZM16.5538 20C16.5538 19.0469 15.7838 18.2769 14.8308 18.2769C13.8777 18.2769 13.1077 19.0469 13.1077 20C13.1077 20.9531 13.8777 21.7231 14.8308 21.7231C15.7838 21.7231 16.5538 20.9531 16.5538 20Z" fill="black"/>
<mask id="mask0_1_79" style="mask-type:alpha" maskUnits="userSpaceOnUse" x="8" y="8" width="24" height="24">
<path fill-rule="evenodd" clip-rule="evenodd" d="M24.3777 29.5577C23.0369 30.1069 21.5562 30.4138 20 30.4138C13.8131 30.4138 8.8 25.5785 8.8 19.6069C8.8 13.6408 13.8131 8.8 20 8.8C26.1869 8.8 31.2 13.6408 31.1892 19.6177C31.1892 21.7662 30.5377 23.7692 29.4123 25.4546C29.3638 25.5138 29.3208 25.5838 29.2777 25.6538C29.1485 25.8854 29.0677 26.1546 29.0677 26.44L30.2577 31.2L25.7346 29.5362C25.5354 29.45 25.3146 29.4069 25.0831 29.4069C24.8731 29.4069 24.6685 29.4446 24.48 29.5146C24.48 29.52 24.4746 29.52 24.4692 29.52C24.4369 29.5308 24.41 29.5415 24.3777 29.5577ZM26.8923 20C26.8923 19.0469 26.1223 18.2769 25.1692 18.2769C24.2162 18.2769 23.4462 19.0469 23.4462 20C23.4462 20.9531 24.2162 21.7231 25.1692 21.7231C26.1223 21.7231 26.8923 20.9531 26.8923 20ZM20 18.2769C20.9531 18.2769 21.7231 19.0469 21.7231 20C21.7231 20.9531 20.9531 21.7231 20 21.7231C19.0469 21.7231 18.2769 20.9531 18.2769 20C18.2769 19.0469 19.0469 18.2769 20 18.2769ZM16.5538 20C16.5538 19.0469 15.7838 18.2769 14.8308 18.2769C13.8777 18.2769 13.1077 19.0469 13.1077 20C13.1077 20.9531 13.8777 21.7231 14.8308 21.7231C15.7838 21.7231 16.5538 20.9531 16.5538 20Z" fill="white"/>
</mask>
<g mask="url(#mask0_1_79)">
<rect x="6" y="6" width="28" height="28" fill="white"/>
</g>
</svg>
